<mxfile host="app.diagrams.net" agent="Mozilla/5.0 (Windows NT 10.0; Win64; x64) AppleWebKit/537.36 (KHTML, like Gecko) Chrome/141.0.0.0 Safari/537.36" version="28.2.5">
  <diagram name="Página-1" id="wRZBzEFLC0RDFfikrZMO">
    <mxGraphModel dx="786" dy="435" grid="1" gridSize="10" guides="1" tooltips="1" connect="1" arrows="1" fold="1" page="1" pageScale="1" pageWidth="827" pageHeight="1169" math="0" shadow="0">
      <root>
        <mxCell id="0" />
        <mxCell id="1" parent="0" />
        <mxCell id="4XcYoZFXyk6oyQzzRbxs-1" value="Máquina_de_Estado" style="text;html=1;align=center;verticalAlign=middle;whiteSpace=wrap;rounded=0;" parent="1" vertex="1">
          <mxGeometry x="40" y="40" width="60" height="30" as="geometry" />
        </mxCell>
        <mxCell id="4XcYoZFXyk6oyQzzRbxs-7" value="" style="rounded=1;whiteSpace=wrap;html=1;" parent="1" vertex="1">
          <mxGeometry x="150" y="80" width="120" height="30" as="geometry" />
        </mxCell>
        <mxCell id="4XcYoZFXyk6oyQzzRbxs-8" value="Perseguindo" style="text;html=1;align=center;verticalAlign=middle;whiteSpace=wrap;rounded=0;" parent="1" vertex="1">
          <mxGeometry x="180" y="80" width="60" height="30" as="geometry" />
        </mxCell>
        <mxCell id="4XcYoZFXyk6oyQzzRbxs-9" value="" style="rounded=1;whiteSpace=wrap;html=1;" parent="1" vertex="1">
          <mxGeometry x="40" y="240" width="120" height="30" as="geometry" />
        </mxCell>
        <mxCell id="4XcYoZFXyk6oyQzzRbxs-10" value="" style="rounded=1;whiteSpace=wrap;html=1;" parent="1" vertex="1">
          <mxGeometry x="40" y="160" width="120" height="30" as="geometry" />
        </mxCell>
        <mxCell id="4XcYoZFXyk6oyQzzRbxs-11" value="" style="rounded=1;whiteSpace=wrap;html=1;" parent="1" vertex="1">
          <mxGeometry x="240" y="160" width="120" height="30" as="geometry" />
        </mxCell>
        <mxCell id="4XcYoZFXyk6oyQzzRbxs-12" value="" style="rounded=1;whiteSpace=wrap;html=1;" parent="1" vertex="1">
          <mxGeometry x="240" y="240" width="120" height="30" as="geometry" />
        </mxCell>
        <mxCell id="4XcYoZFXyk6oyQzzRbxs-13" value="Perseguindo" style="text;html=1;align=center;verticalAlign=middle;whiteSpace=wrap;rounded=0;" parent="1" vertex="1">
          <mxGeometry x="70" y="240" width="60" height="30" as="geometry" />
        </mxCell>
        <mxCell id="4XcYoZFXyk6oyQzzRbxs-14" value="Morto" style="text;html=1;align=center;verticalAlign=middle;whiteSpace=wrap;rounded=0;" parent="1" vertex="1">
          <mxGeometry x="270" y="240" width="60" height="30" as="geometry" />
        </mxCell>
        <mxCell id="4XcYoZFXyk6oyQzzRbxs-15" value="Patrulhando" style="text;html=1;align=center;verticalAlign=middle;whiteSpace=wrap;rounded=0;" parent="1" vertex="1">
          <mxGeometry x="70" y="160" width="60" height="30" as="geometry" />
        </mxCell>
        <mxCell id="4XcYoZFXyk6oyQzzRbxs-16" value="Atacando" style="text;html=1;align=center;verticalAlign=middle;whiteSpace=wrap;rounded=0;" parent="1" vertex="1">
          <mxGeometry x="270" y="160" width="60" height="30" as="geometry" />
        </mxCell>
        <mxCell id="4XcYoZFXyk6oyQzzRbxs-18" value="" style="endArrow=classic;html=1;rounded=0;exitX=0.5;exitY=0;exitDx=0;exitDy=0;entryX=0;entryY=0.5;entryDx=0;entryDy=0;" parent="1" source="4XcYoZFXyk6oyQzzRbxs-15" target="4XcYoZFXyk6oyQzzRbxs-7" edge="1">
          <mxGeometry width="50" height="50" relative="1" as="geometry">
            <mxPoint x="60" y="140" as="sourcePoint" />
            <mxPoint x="110" y="90" as="targetPoint" />
            <Array as="points">
              <mxPoint x="100" y="95" />
            </Array>
          </mxGeometry>
        </mxCell>
        <mxCell id="4XcYoZFXyk6oyQzzRbxs-19" value="" style="endArrow=classic;html=1;rounded=0;exitX=1;exitY=0.5;exitDx=0;exitDy=0;entryX=0.5;entryY=0;entryDx=0;entryDy=0;" parent="1" source="4XcYoZFXyk6oyQzzRbxs-7" target="4XcYoZFXyk6oyQzzRbxs-16" edge="1">
          <mxGeometry width="50" height="50" relative="1" as="geometry">
            <mxPoint x="290" y="110" as="sourcePoint" />
            <mxPoint x="340" y="60" as="targetPoint" />
            <Array as="points">
              <mxPoint x="300" y="95" />
            </Array>
          </mxGeometry>
        </mxCell>
        <mxCell id="4XcYoZFXyk6oyQzzRbxs-20" value="" style="endArrow=classic;html=1;rounded=0;exitX=1;exitY=0.5;exitDx=0;exitDy=0;entryX=0;entryY=0.5;entryDx=0;entryDy=0;" parent="1" source="4XcYoZFXyk6oyQzzRbxs-9" target="4XcYoZFXyk6oyQzzRbxs-12" edge="1">
          <mxGeometry width="50" height="50" relative="1" as="geometry">
            <mxPoint x="170" y="280" as="sourcePoint" />
            <mxPoint x="220" y="230" as="targetPoint" />
          </mxGeometry>
        </mxCell>
        <mxCell id="4XcYoZFXyk6oyQzzRbxs-21" value="" style="endArrow=classic;html=1;rounded=0;exitX=0.5;exitY=1;exitDx=0;exitDy=0;entryX=0.5;entryY=0;entryDx=0;entryDy=0;" parent="1" source="4XcYoZFXyk6oyQzzRbxs-16" target="4XcYoZFXyk6oyQzzRbxs-14" edge="1">
          <mxGeometry width="50" height="50" relative="1" as="geometry">
            <mxPoint x="340" y="230" as="sourcePoint" />
            <mxPoint x="390" y="180" as="targetPoint" />
          </mxGeometry>
        </mxCell>
        <mxCell id="4XcYoZFXyk6oyQzzRbxs-22" value="" style="endArrow=classic;html=1;rounded=0;exitX=0.5;exitY=1;exitDx=0;exitDy=0;entryX=0.5;entryY=0;entryDx=0;entryDy=0;" parent="1" edge="1">
          <mxGeometry width="50" height="50" relative="1" as="geometry">
            <mxPoint x="99.5" y="190" as="sourcePoint" />
            <mxPoint x="99.5" y="240" as="targetPoint" />
          </mxGeometry>
        </mxCell>
        <mxCell id="4XcYoZFXyk6oyQzzRbxs-26" value="" style="endArrow=classic;html=1;rounded=0;exitX=1;exitY=1;exitDx=0;exitDy=0;entryX=0;entryY=0;entryDx=0;entryDy=0;" parent="1" source="4XcYoZFXyk6oyQzzRbxs-10" target="4XcYoZFXyk6oyQzzRbxs-12" edge="1">
          <mxGeometry width="50" height="50" relative="1" as="geometry">
            <mxPoint x="160" y="220" as="sourcePoint" />
            <mxPoint x="210" y="170" as="targetPoint" />
          </mxGeometry>
        </mxCell>
        <mxCell id="4XcYoZFXyk6oyQzzRbxs-27" value="" style="endArrow=classic;html=1;rounded=0;exitX=0.25;exitY=0;exitDx=0;exitDy=0;entryX=0;entryY=1;entryDx=0;entryDy=0;" parent="1" source="4XcYoZFXyk6oyQzzRbxs-9" target="4XcYoZFXyk6oyQzzRbxs-15" edge="1">
          <mxGeometry width="50" height="50" relative="1" as="geometry">
            <mxPoint x="20" y="250" as="sourcePoint" />
            <mxPoint x="70" y="200" as="targetPoint" />
          </mxGeometry>
        </mxCell>
        <mxCell id="4XcYoZFXyk6oyQzzRbxs-28" value="" style="endArrow=classic;html=1;rounded=0;entryX=0.867;entryY=1.067;entryDx=0;entryDy=0;entryPerimeter=0;exitX=0.125;exitY=-0.067;exitDx=0;exitDy=0;exitPerimeter=0;" parent="1" source="4XcYoZFXyk6oyQzzRbxs-11" target="4XcYoZFXyk6oyQzzRbxs-7" edge="1">
          <mxGeometry width="50" height="50" relative="1" as="geometry">
            <mxPoint x="254" y="150" as="sourcePoint" />
            <mxPoint x="290" y="100" as="targetPoint" />
          </mxGeometry>
        </mxCell>
        <mxCell id="4XcYoZFXyk6oyQzzRbxs-29" value="" style="endArrow=classic;html=1;rounded=0;exitX=0;exitY=0.5;exitDx=0;exitDy=0;entryX=1;entryY=0.5;entryDx=0;entryDy=0;" parent="1" source="4XcYoZFXyk6oyQzzRbxs-11" target="4XcYoZFXyk6oyQzzRbxs-10" edge="1">
          <mxGeometry width="50" height="50" relative="1" as="geometry">
            <mxPoint x="180" y="180" as="sourcePoint" />
            <mxPoint x="230" y="130" as="targetPoint" />
          </mxGeometry>
        </mxCell>
        <mxCell id="4XcYoZFXyk6oyQzzRbxs-30" value="" style="endArrow=classic;html=1;rounded=0;entryX=0.2;entryY=0;entryDx=0;entryDy=0;entryPerimeter=0;exitX=0;exitY=0.75;exitDx=0;exitDy=0;" parent="1" source="4XcYoZFXyk6oyQzzRbxs-10" target="4XcYoZFXyk6oyQzzRbxs-10" edge="1">
          <mxGeometry width="50" height="50" relative="1" as="geometry">
            <mxPoint x="20" y="200" as="sourcePoint" />
            <mxPoint x="60" y="130" as="targetPoint" />
            <Array as="points">
              <mxPoint x="20" y="183" />
              <mxPoint x="20" y="140" />
              <mxPoint x="64" y="140" />
            </Array>
          </mxGeometry>
        </mxCell>
        <mxCell id="OLIArLsYc_QONkQqRyPk-1" value="1--Luke_detectado" style="text;html=1;align=center;verticalAlign=middle;whiteSpace=wrap;rounded=0;" vertex="1" parent="1">
          <mxGeometry x="466" y="60" width="114" height="30" as="geometry" />
        </mxCell>
        <mxCell id="OLIArLsYc_QONkQqRyPk-2" value="1" style="text;html=1;align=center;verticalAlign=middle;whiteSpace=wrap;rounded=0;" vertex="1" parent="1">
          <mxGeometry x="90" y="110" width="60" height="30" as="geometry" />
        </mxCell>
        <mxCell id="OLIArLsYc_QONkQqRyPk-3" value="1" style="text;html=1;align=center;verticalAlign=middle;whiteSpace=wrap;rounded=0;" vertex="1" parent="1">
          <mxGeometry x="90" y="200" width="60" height="30" as="geometry" />
        </mxCell>
        <mxCell id="OLIArLsYc_QONkQqRyPk-5" value="2--Colidiu_Luke" style="text;html=1;align=center;verticalAlign=middle;whiteSpace=wrap;rounded=0;" vertex="1" parent="1">
          <mxGeometry x="470" y="83" width="90" height="30" as="geometry" />
        </mxCell>
        <mxCell id="OLIArLsYc_QONkQqRyPk-6" value="3--Luke_fora_alcance" style="text;html=1;align=center;verticalAlign=middle;whiteSpace=wrap;rounded=0;" vertex="1" parent="1">
          <mxGeometry x="466" y="111" width="130" height="30" as="geometry" />
        </mxCell>
        <mxCell id="OLIArLsYc_QONkQqRyPk-7" value="2" style="text;html=1;align=center;verticalAlign=middle;whiteSpace=wrap;rounded=0;" vertex="1" parent="1">
          <mxGeometry x="290" y="110" width="60" height="30" as="geometry" />
        </mxCell>
        <mxCell id="OLIArLsYc_QONkQqRyPk-8" value="3" style="text;html=1;align=center;verticalAlign=middle;whiteSpace=wrap;rounded=0;" vertex="1" parent="1">
          <mxGeometry x="20" y="200" width="60" height="30" as="geometry" />
        </mxCell>
        <mxCell id="OLIArLsYc_QONkQqRyPk-9" value="4--Luke_proximo" style="text;html=1;align=center;verticalAlign=middle;whiteSpace=wrap;rounded=0;" vertex="1" parent="1">
          <mxGeometry x="468" y="137" width="100" height="30" as="geometry" />
        </mxCell>
        <mxCell id="OLIArLsYc_QONkQqRyPk-10" value="4" style="text;html=1;align=center;verticalAlign=middle;whiteSpace=wrap;rounded=0;" vertex="1" parent="1">
          <mxGeometry x="207" y="121" width="60" height="30" as="geometry" />
        </mxCell>
        <mxCell id="OLIArLsYc_QONkQqRyPk-11" value="5--Luke_distante" style="text;html=1;align=center;verticalAlign=middle;whiteSpace=wrap;rounded=0;" vertex="1" parent="1">
          <mxGeometry x="470" y="163" width="100" height="30" as="geometry" />
        </mxCell>
        <mxCell id="OLIArLsYc_QONkQqRyPk-12" value="5" style="text;html=1;align=center;verticalAlign=middle;whiteSpace=wrap;rounded=0;" vertex="1" parent="1">
          <mxGeometry x="170" y="146" width="60" height="30" as="geometry" />
        </mxCell>
        <mxCell id="OLIArLsYc_QONkQqRyPk-13" value="6--Inverte_direcao" style="text;html=1;align=center;verticalAlign=middle;whiteSpace=wrap;rounded=0;" vertex="1" parent="1">
          <mxGeometry x="469" y="190" width="110" height="30" as="geometry" />
        </mxCell>
        <mxCell id="OLIArLsYc_QONkQqRyPk-14" value="6" style="text;html=1;align=center;verticalAlign=middle;whiteSpace=wrap;rounded=0;" vertex="1" parent="1">
          <mxGeometry x="10" y="113" width="60" height="30" as="geometry" />
        </mxCell>
        <mxCell id="OLIArLsYc_QONkQqRyPk-15" value="7--Saiu_tela" style="text;html=1;align=center;verticalAlign=middle;whiteSpace=wrap;rounded=0;" vertex="1" parent="1">
          <mxGeometry x="458" y="218" width="100" height="30" as="geometry" />
        </mxCell>
        <mxCell id="OLIArLsYc_QONkQqRyPk-16" value="7" style="text;html=1;align=center;verticalAlign=middle;whiteSpace=wrap;rounded=0;" vertex="1" parent="1">
          <mxGeometry x="380" y="90" width="60" height="30" as="geometry" />
        </mxCell>
        <mxCell id="OLIArLsYc_QONkQqRyPk-17" value="7" style="text;html=1;align=center;verticalAlign=middle;whiteSpace=wrap;rounded=0;" vertex="1" parent="1">
          <mxGeometry x="280" y="200" width="60" height="30" as="geometry" />
        </mxCell>
        <mxCell id="OLIArLsYc_QONkQqRyPk-18" value="7" style="text;html=1;align=center;verticalAlign=middle;whiteSpace=wrap;rounded=0;" vertex="1" parent="1">
          <mxGeometry x="190" y="193" width="60" height="30" as="geometry" />
        </mxCell>
      </root>
    </mxGraphModel>
  </diagram>
</mxfile>
